<svg width="30" height="30" viewBox="0 0 30 30" fill="none" xmlns="http://www.w3.org/2000/svg">
<path d="M20 21.25V23.75H2.5V21.25C2.5 21.25 2.5 16.25 11.25 16.25C20 16.25 20 21.25 20 21.25ZM15.625 9.37505C15.625 8.50975 15.3684 7.66389 14.8877 6.94443C14.4069 6.22496 13.7237 5.66421 12.9242 5.33307C12.1248 5.00194 11.2451 4.9153 10.3965 5.08411C9.54781 5.25292 8.76826 5.6696 8.15641 6.28145C7.54455 6.89331 7.12787 7.67286 6.95906 8.52153C6.79025 9.37019 6.87689 10.2499 7.20803 11.0493C7.53916 11.8487 8.09992 12.532 8.81938 13.0127C9.53885 13.4935 10.3847 13.75 11.25 13.75C12.4103 13.75 13.5231 13.2891 14.3436 12.4686C15.1641 11.6482 15.625 10.5354 15.625 9.37505ZM19.925 16.25C20.6934 16.8447 21.3222 17.6006 21.7671 18.4644C22.212 19.3283 22.4621 20.2791 22.5 21.25V23.75H27.5V21.25C27.5 21.25 27.5 16.7125 19.925 16.25ZM18.75 5.00005C17.8897 4.99604 17.0485 5.25321 16.3375 5.73755C17.0968 6.79847 17.5051 8.0704 17.5051 9.37505C17.5051 10.6797 17.0968 11.9516 16.3375 13.0125C17.0485 13.4969 17.8897 13.754 18.75 13.75C19.9103 13.75 21.0231 13.2891 21.8436 12.4686C22.6641 11.6482 23.125 10.5354 23.125 9.37505C23.125 8.21472 22.6641 7.10193 21.8436 6.28145C21.0231 5.46098 19.9103 5.00005 18.75 5.00005Z" fill="#5C91C4"/>
</svg>
