<svg width="30" height="28" viewBox="0 0 30 28" fill="none" xmlns="http://www.w3.org/2000/svg">
<g clip-path="url(#clip0_123_811)">
<path d="M14 13.8867C14 12.7826 13.6094 11.8398 12.8281 11.0586C12.0469 10.2773 11.1042 9.88672 10 9.88672C8.89583 9.88672 7.95312 10.2773 7.17188 11.0586C6.39062 11.8398 6 12.7826 6 13.8867C6 14.9909 6.39062 15.9336 7.17188 16.7148C7.95312 17.4961 8.89583 17.8867 10 17.8867C11.1042 17.8867 12.0469 17.4961 12.8281 16.7148C13.6094 15.9336 14 14.9909 14 13.8867ZM26 21.8867C26 21.3451 25.8021 20.8763 25.4062 20.4805C25.0104 20.0846 24.5417 19.8867 24 19.8867C23.4583 19.8867 22.9896 20.0846 22.5938 20.4805C22.1979 20.8763 22 21.3451 22 21.8867C22 22.4388 22.1953 22.9102 22.5859 23.3008C22.9766 23.6914 23.4479 23.8867 24 23.8867C24.5521 23.8867 25.0234 23.6914 25.4141 23.3008C25.8047 22.9102 26 22.4388 26 21.8867ZM26 5.88672C26 5.34505 25.8021 4.8763 25.4062 4.48047C25.0104 4.08464 24.5417 3.88672 24 3.88672C23.4583 3.88672 22.9896 4.08464 22.5938 4.48047C22.1979 4.8763 22 5.34505 22 5.88672C22 6.4388 22.1953 6.91016 22.5859 7.30078C22.9766 7.69141 23.4479 7.88672 24 7.88672C24.5521 7.88672 25.0234 7.69141 25.4141 7.30078C25.8047 6.91016 26 6.4388 26 5.88672ZM20 12.4648V15.3555C20 15.4596 19.9635 15.5612 19.8906 15.6602C19.8177 15.7591 19.7344 15.8138 19.6406 15.8242L17.2188 16.1992C17.1042 16.5638 16.9375 16.9596 16.7188 17.3867C17.0729 17.8867 17.5417 18.4857 18.125 19.1836C18.1979 19.2982 18.2344 19.4023 18.2344 19.4961C18.2344 19.6211 18.1979 19.7201 18.125 19.793C17.8854 20.1055 17.4557 20.5716 16.8359 21.1914C16.2161 21.8112 15.8073 22.1211 15.6094 22.1211C15.4948 22.1211 15.3854 22.0846 15.2812 22.0117L13.4844 20.6055C13.099 20.8034 12.6979 20.9648 12.2812 21.0898C12.1667 22.2148 12.0469 23.0221 11.9219 23.5117C11.849 23.7617 11.6927 23.8867 11.4531 23.8867H8.54688C8.43229 23.8867 8.32812 23.8477 8.23438 23.7695C8.14062 23.6914 8.08854 23.6003 8.07812 23.4961L7.71875 21.1055C7.36458 21.0013 6.97396 20.8398 6.54688 20.6211L4.70312 22.0117C4.63021 22.0846 4.52604 22.1211 4.39062 22.1211C4.27604 22.1211 4.16667 22.0794 4.0625 21.9961C2.5625 20.6107 1.8125 19.7773 1.8125 19.4961C1.8125 19.4023 1.84896 19.3034 1.92188 19.1992C2.02604 19.0534 2.23958 18.7773 2.5625 18.3711C2.88542 17.9648 3.13021 17.6471 3.29688 17.418C3.05729 16.9596 2.875 16.5326 2.75 16.1367L0.375 15.7617C0.270833 15.7513 0.182292 15.7018 0.109375 15.6133C0.0364583 15.5247 0 15.4232 0 15.3086V12.418C0 12.3138 0.0364583 12.2122 0.109375 12.1133C0.182292 12.0143 0.265625 11.9596 0.359375 11.9492L2.78125 11.5742C2.89583 11.2096 3.0625 10.8138 3.28125 10.3867C2.92708 9.88672 2.45833 9.28776 1.875 8.58984C1.80208 8.47526 1.76562 8.37109 1.76562 8.27734C1.76562 8.15234 1.80208 8.04818 1.875 7.96484C2.10417 7.65234 2.53125 7.1888 3.15625 6.57422C3.78125 5.95964 4.19271 5.65234 4.39062 5.65234C4.50521 5.65234 4.61458 5.6888 4.71875 5.76172L6.51562 7.16797C6.86979 6.98047 7.27083 6.8138 7.71875 6.66797C7.83333 5.54297 7.95312 4.74089 8.07812 4.26172C8.15104 4.01172 8.30729 3.88672 8.54688 3.88672H11.4531C11.5677 3.88672 11.6719 3.92578 11.7656 4.00391C11.8594 4.08203 11.9115 4.17318 11.9219 4.27734L12.2812 6.66797C12.6354 6.77214 13.026 6.93359 13.4531 7.15234L15.2969 5.76172C15.3802 5.6888 15.4844 5.65234 15.6094 5.65234C15.724 5.65234 15.8333 5.69401 15.9375 5.77734C17.4375 7.16276 18.1875 7.99609 18.1875 8.27734C18.1875 8.36068 18.151 8.45964 18.0781 8.57422C17.9531 8.74089 17.7344 9.02214 17.4219 9.41797C17.1094 9.8138 16.875 10.1263 16.7188 10.3555C16.9583 10.8555 17.1354 11.2826 17.25 11.6367L19.625 11.9961C19.7292 12.0169 19.8177 12.0716 19.8906 12.1602C19.9635 12.2487 20 12.3503 20 12.4648ZM30 20.793V22.9805C30 23.1471 29.224 23.3086 27.6719 23.4648C27.5469 23.7461 27.3906 24.0169 27.2031 24.2773C27.7344 25.4544 28 26.1732 28 26.4336C28 26.4753 27.9792 26.5117 27.9375 26.543C26.6667 27.2826 26.0208 27.6523 26 27.6523C25.9167 27.6523 25.6771 27.4076 25.2812 26.918C24.8854 26.4284 24.6146 26.0742 24.4688 25.8555C24.2604 25.8763 24.1042 25.8867 24 25.8867C23.8958 25.8867 23.7396 25.8763 23.5312 25.8555C23.3854 26.0742 23.1146 26.4284 22.7188 26.918C22.3229 27.4076 22.0833 27.6523 22 27.6523C21.9792 27.6523 21.3333 27.2826 20.0625 26.543C20.0208 26.5117 20 26.4753 20 26.4336C20 26.1732 20.2656 25.4544 20.7969 24.2773C20.6094 24.0169 20.4531 23.7461 20.3281 23.4648C18.776 23.3086 18 23.1471 18 22.9805V20.793C18 20.6263 18.776 20.4648 20.3281 20.3086C20.4635 20.0065 20.6198 19.7357 20.7969 19.4961C20.2656 18.319 20 17.6003 20 17.3398C20 17.2982 20.0208 17.2617 20.0625 17.2305C20.1042 17.2096 20.2865 17.1055 20.6094 16.918C20.9323 16.7305 21.2396 16.5534 21.5312 16.3867C21.8229 16.2201 21.9792 16.1367 22 16.1367C22.0833 16.1367 22.3229 16.3789 22.7188 16.8633C23.1146 17.3477 23.3854 17.6992 23.5312 17.918C23.7396 17.8971 23.8958 17.8867 24 17.8867C24.1042 17.8867 24.2604 17.8971 24.4688 17.918C25 17.1784 25.4792 16.5951 25.9062 16.168L26 16.1367C26.0417 16.1367 26.6875 16.5013 27.9375 17.2305C27.9792 17.2617 28 17.2982 28 17.3398C28 17.6003 27.7344 18.319 27.2031 19.4961C27.3802 19.7357 27.5365 20.0065 27.6719 20.3086C29.224 20.4648 30 20.6263 30 20.793ZM30 4.79297V6.98047C30 7.14714 29.224 7.30859 27.6719 7.46484C27.5469 7.74609 27.3906 8.01693 27.2031 8.27734C27.7344 9.45443 28 10.1732 28 10.4336C28 10.4753 27.9792 10.5117 27.9375 10.543C26.6667 11.2826 26.0208 11.6523 26 11.6523C25.9167 11.6523 25.6771 11.4076 25.2812 10.918C24.8854 10.4284 24.6146 10.0742 24.4688 9.85547C24.2604 9.8763 24.1042 9.88672 24 9.88672C23.8958 9.88672 23.7396 9.8763 23.5312 9.85547C23.3854 10.0742 23.1146 10.4284 22.7188 10.918C22.3229 11.4076 22.0833 11.6523 22 11.6523C21.9792 11.6523 21.3333 11.2826 20.0625 10.543C20.0208 10.5117 20 10.4753 20 10.4336C20 10.1732 20.2656 9.45443 20.7969 8.27734C20.6094 8.01693 20.4531 7.74609 20.3281 7.46484C18.776 7.30859 18 7.14714 18 6.98047V4.79297C18 4.6263 18.776 4.46484 20.3281 4.30859C20.4635 4.00651 20.6198 3.73568 20.7969 3.49609C20.2656 2.31901 20 1.60026 20 1.33984C20 1.29818 20.0208 1.26172 20.0625 1.23047C20.1042 1.20964 20.2865 1.10547 20.6094 0.917969C20.9323 0.730469 21.2396 0.553385 21.5312 0.386719C21.8229 0.220052 21.9792 0.136719 22 0.136719C22.0833 0.136719 22.3229 0.378906 22.7188 0.863281C23.1146 1.34766 23.3854 1.69922 23.5312 1.91797C23.7396 1.89714 23.8958 1.88672 24 1.88672C24.1042 1.88672 24.2604 1.89714 24.4688 1.91797C25 1.17839 25.4792 0.595052 25.9062 0.167969L26 0.136719C26.0417 0.136719 26.6875 0.501302 27.9375 1.23047C27.9792 1.26172 28 1.29818 28 1.33984C28 1.60026 27.7344 2.31901 27.2031 3.49609C27.3802 3.73568 27.5365 4.00651 27.6719 4.30859C29.224 4.46484 30 4.6263 30 4.79297Z" fill="#5C91C4"/>
</g>
<defs>
<clipPath id="clip0_123_811">
<rect width="30" height="28" fill="white"/>
</clipPath>
</defs>
</svg>
