<svg width="83" height="51" viewBox="0 0 83 51" fill="none" xmlns="http://www.w3.org/2000/svg">
<mask id="path-1-outside-1_78_1156" maskUnits="userSpaceOnUse" x="-0.268066" y="-0.664062" width="84" height="52" fill="black">
<rect fill="white" x="-0.268066" y="-0.664062" width="84" height="52"/>
<path d="M29.2959 34.9619C29.9079 35.8619 30.5739 36.5819 31.2939 37.1219C32.0499 37.6259 32.9679 38.0039 34.0479 38.2559V39.3359C32.3199 39.2279 30.1599 39.1739 27.5679 39.1739C25.6239 39.1739 23.7699 39.2279 22.0059 39.3359V38.2559C22.8699 38.2199 23.4999 38.1119 23.8959 37.9319C24.2919 37.7519 24.4899 37.4819 24.4899 37.1219C24.4899 36.7619 24.3099 36.3299 23.9499 35.8259L16.0659 23.9459C15.0219 22.3619 14.1399 21.3359 13.4199 20.8679C12.6999 20.3639 11.6919 20.0759 10.3959 20.0039V33.6119C10.3959 34.9799 10.5039 35.9699 10.7199 36.5819C10.9359 37.1939 11.3319 37.6079 11.9079 37.8239C12.5199 38.0399 13.4739 38.1839 14.7699 38.2559V39.3359C13.1139 39.2279 10.8279 39.1739 7.91193 39.1739C4.81593 39.1739 2.51193 39.2279 0.999934 39.3359V38.2559C2.29593 38.1839 3.23193 38.0399 3.80793 37.8239C4.41993 37.6079 4.83393 37.1939 5.04993 36.5819C5.26593 35.9699 5.37393 34.9799 5.37393 33.6119V6.82793C5.37393 5.45993 5.26593 4.46994 5.04993 3.85794C4.83393 3.24594 4.41993 2.83194 3.80793 2.61594C3.23193 2.39994 2.29593 2.25594 0.999934 2.18394V1.10394C2.51193 1.21194 4.81593 1.26594 7.91193 1.26594C10.7919 1.26594 13.0779 1.21194 14.7699 1.10394V2.18394C13.4739 2.25594 12.5199 2.39994 11.9079 2.61594C11.3319 2.83194 10.9359 3.24594 10.7199 3.85794C10.5039 4.46994 10.3959 5.45993 10.3959 6.82793V18.9239C13.0239 18.8159 15.0759 17.8079 16.5519 15.8999L21.7359 9.31193C23.5719 7.04394 24.4899 5.31594 24.4899 4.12794C24.4899 2.86794 23.3739 2.21994 21.1419 2.18394V1.10394C23.1939 1.21194 25.2639 1.26594 27.3519 1.26594C29.3319 1.26594 30.8619 1.21194 31.9419 1.10394V2.18394C30.7539 2.36394 29.6379 2.75994 28.5939 3.37194C27.5499 3.94794 26.5419 4.86594 25.5699 6.12594L16.7679 17.4119L29.2959 34.9619ZM33.0367 48.4619C35.5567 48.3899 37.4107 47.4539 38.5987 45.6539C39.8227 43.8539 40.4347 40.8119 40.4347 36.5279V6.82793C40.4347 5.45993 40.3267 4.46994 40.1107 3.85794C39.8947 3.24594 39.4807 2.83194 38.8687 2.61594C38.2927 2.39994 37.3567 2.25594 36.0607 2.18394V1.10394C37.5727 1.21194 39.8407 1.26594 42.8647 1.26594C45.8167 1.26594 48.1387 1.21194 49.8307 1.10394V2.18394C48.5347 2.25594 47.5807 2.39994 46.9687 2.61594C46.3927 2.83194 45.9967 3.24594 45.7807 3.85794C45.5647 4.46994 45.4567 5.45993 45.4567 6.82793V26.5919C45.4567 29.6519 45.4027 32.3699 45.2947 34.7459C45.1867 37.0859 44.9347 39.0659 44.5387 40.6859C43.8907 43.3139 42.5587 45.4379 40.5427 47.0579C38.5627 48.6779 36.0607 49.4879 33.0367 49.4879V48.4619ZM63.394 23.8919V33.6119C63.394 34.9799 63.538 35.9699 63.826 36.5819C64.114 37.1939 64.618 37.6079 65.338 37.8239C66.058 38.0399 67.228 38.1839 68.848 38.2559V39.3359C66.976 39.2279 64.33 39.1739 60.91 39.1739C57.814 39.1739 55.51 39.2279 53.998 39.3359V38.2559C55.294 38.1839 56.23 38.0399 56.806 37.8239C57.418 37.6079 57.832 37.1939 58.048 36.5819C58.264 35.9699 58.372 34.9799 58.372 33.6119V6.82793C58.372 5.45993 58.264 4.46994 58.048 3.85794C57.832 3.24594 57.418 2.83194 56.806 2.61594C56.23 2.39994 55.294 2.25594 53.998 2.18394V1.10394C55.51 1.21194 57.706 1.26594 60.586 1.26594L66.418 1.21194C67.102 1.17594 67.876 1.15794 68.74 1.15794C72.952 1.15794 76.174 2.12994 78.406 4.07393C80.638 5.98194 81.754 8.55594 81.754 11.7959C81.754 13.7759 81.304 15.6839 80.404 17.5199C79.54 19.3199 78.046 20.8319 75.922 22.0559C73.834 23.2799 71.044 23.8919 67.552 23.8919H63.394ZM67.39 2.18394C66.274 2.18394 65.428 2.30994 64.852 2.56193C64.312 2.81394 63.934 3.26394 63.718 3.91194C63.502 4.55994 63.394 5.53194 63.394 6.82793V22.8119H67.012C70.54 22.8119 72.97 21.8759 74.302 20.0039C75.67 18.0959 76.354 15.5579 76.354 12.3899C76.354 8.89794 75.652 6.32394 74.248 4.66794C72.88 3.01194 70.594 2.18394 67.39 2.18394Z"/>
</mask>
<path d="M29.2959 34.9619C29.9079 35.8619 30.5739 36.5819 31.2939 37.1219C32.0499 37.6259 32.9679 38.0039 34.0479 38.2559V39.3359C32.3199 39.2279 30.1599 39.1739 27.5679 39.1739C25.6239 39.1739 23.7699 39.2279 22.0059 39.3359V38.2559C22.8699 38.2199 23.4999 38.1119 23.8959 37.9319C24.2919 37.7519 24.4899 37.4819 24.4899 37.1219C24.4899 36.7619 24.3099 36.3299 23.9499 35.8259L16.0659 23.9459C15.0219 22.3619 14.1399 21.3359 13.4199 20.8679C12.6999 20.3639 11.6919 20.0759 10.3959 20.0039V33.6119C10.3959 34.9799 10.5039 35.9699 10.7199 36.5819C10.9359 37.1939 11.3319 37.6079 11.9079 37.8239C12.5199 38.0399 13.4739 38.1839 14.7699 38.2559V39.3359C13.1139 39.2279 10.8279 39.1739 7.91193 39.1739C4.81593 39.1739 2.51193 39.2279 0.999934 39.3359V38.2559C2.29593 38.1839 3.23193 38.0399 3.80793 37.8239C4.41993 37.6079 4.83393 37.1939 5.04993 36.5819C5.26593 35.9699 5.37393 34.9799 5.37393 33.6119V6.82793C5.37393 5.45993 5.26593 4.46994 5.04993 3.85794C4.83393 3.24594 4.41993 2.83194 3.80793 2.61594C3.23193 2.39994 2.29593 2.25594 0.999934 2.18394V1.10394C2.51193 1.21194 4.81593 1.26594 7.91193 1.26594C10.7919 1.26594 13.0779 1.21194 14.7699 1.10394V2.18394C13.4739 2.25594 12.5199 2.39994 11.9079 2.61594C11.3319 2.83194 10.9359 3.24594 10.7199 3.85794C10.5039 4.46994 10.3959 5.45993 10.3959 6.82793V18.9239C13.0239 18.8159 15.0759 17.8079 16.5519 15.8999L21.7359 9.31193C23.5719 7.04394 24.4899 5.31594 24.4899 4.12794C24.4899 2.86794 23.3739 2.21994 21.1419 2.18394V1.10394C23.1939 1.21194 25.2639 1.26594 27.3519 1.26594C29.3319 1.26594 30.8619 1.21194 31.9419 1.10394V2.18394C30.7539 2.36394 29.6379 2.75994 28.5939 3.37194C27.5499 3.94794 26.5419 4.86594 25.5699 6.12594L16.7679 17.4119L29.2959 34.9619ZM33.0367 48.4619C35.5567 48.3899 37.4107 47.4539 38.5987 45.6539C39.8227 43.8539 40.4347 40.8119 40.4347 36.5279V6.82793C40.4347 5.45993 40.3267 4.46994 40.1107 3.85794C39.8947 3.24594 39.4807 2.83194 38.8687 2.61594C38.2927 2.39994 37.3567 2.25594 36.0607 2.18394V1.10394C37.5727 1.21194 39.8407 1.26594 42.8647 1.26594C45.8167 1.26594 48.1387 1.21194 49.8307 1.10394V2.18394C48.5347 2.25594 47.5807 2.39994 46.9687 2.61594C46.3927 2.83194 45.9967 3.24594 45.7807 3.85794C45.5647 4.46994 45.4567 5.45993 45.4567 6.82793V26.5919C45.4567 29.6519 45.4027 32.3699 45.2947 34.7459C45.1867 37.0859 44.9347 39.0659 44.5387 40.6859C43.8907 43.3139 42.5587 45.4379 40.5427 47.0579C38.5627 48.6779 36.0607 49.4879 33.0367 49.4879V48.4619ZM63.394 23.8919V33.6119C63.394 34.9799 63.538 35.9699 63.826 36.5819C64.114 37.1939 64.618 37.6079 65.338 37.8239C66.058 38.0399 67.228 38.1839 68.848 38.2559V39.3359C66.976 39.2279 64.33 39.1739 60.91 39.1739C57.814 39.1739 55.51 39.2279 53.998 39.3359V38.2559C55.294 38.1839 56.23 38.0399 56.806 37.8239C57.418 37.6079 57.832 37.1939 58.048 36.5819C58.264 35.9699 58.372 34.9799 58.372 33.6119V6.82793C58.372 5.45993 58.264 4.46994 58.048 3.85794C57.832 3.24594 57.418 2.83194 56.806 2.61594C56.23 2.39994 55.294 2.25594 53.998 2.18394V1.10394C55.51 1.21194 57.706 1.26594 60.586 1.26594L66.418 1.21194C67.102 1.17594 67.876 1.15794 68.74 1.15794C72.952 1.15794 76.174 2.12994 78.406 4.07393C80.638 5.98194 81.754 8.55594 81.754 11.7959C81.754 13.7759 81.304 15.6839 80.404 17.5199C79.54 19.3199 78.046 20.8319 75.922 22.0559C73.834 23.2799 71.044 23.8919 67.552 23.8919H63.394ZM67.39 2.18394C66.274 2.18394 65.428 2.30994 64.852 2.56193C64.312 2.81394 63.934 3.26394 63.718 3.91194C63.502 4.55994 63.394 5.53194 63.394 6.82793V22.8119H67.012C70.54 22.8119 72.97 21.8759 74.302 20.0039C75.67 18.0959 76.354 15.5579 76.354 12.3899C76.354 8.89794 75.652 6.32394 74.248 4.66794C72.88 3.01194 70.594 2.18394 67.39 2.18394Z" fill="url(#paint0_linear_78_1156)"/>
<path d="M29.2959 34.9619L30.1229 34.3996L30.1165 34.3902L30.1098 34.3809L29.2959 34.9619ZM31.2939 37.1219L30.6939 37.9219L30.7161 37.9386L30.7392 37.954L31.2939 37.1219ZM34.0479 38.2559H35.0479V37.4624L34.2752 37.2821L34.0479 38.2559ZM34.0479 39.3359L33.9856 40.334L35.0479 40.4004V39.3359H34.0479ZM22.0059 39.3359H21.0059V40.399L22.067 40.3341L22.0059 39.3359ZM22.0059 38.2559L21.9643 37.2568L21.0059 37.2967V38.2559H22.0059ZM23.8959 37.9319L24.3097 38.8423V38.8423L23.8959 37.9319ZM23.9499 35.8259L23.1167 36.3789L23.1262 36.3932L23.1362 36.4072L23.9499 35.8259ZM16.0659 23.9459L15.231 24.4963L15.2327 24.4989L16.0659 23.9459ZM13.4199 20.8679L12.8465 21.6872L12.8605 21.697L12.8749 21.7064L13.4199 20.8679ZM10.3959 20.0039L10.4514 19.0055L9.39593 18.9468V20.0039H10.3959ZM10.7199 36.5819L11.6629 36.2491V36.2491L10.7199 36.5819ZM11.9079 37.8239L11.5568 38.7603L11.5659 38.7637L11.5751 38.7669L11.9079 37.8239ZM14.7699 38.2559H15.7699V37.31L14.8254 37.2575L14.7699 38.2559ZM14.7699 39.3359L14.7049 40.3338L15.7699 40.4033V39.3359H14.7699ZM0.999934 39.3359H-6.62804e-05V40.4099L1.07118 40.3334L0.999934 39.3359ZM0.999934 38.2559L0.944464 37.2575L-6.62804e-05 37.31V38.2559H0.999934ZM3.80793 37.8239L3.47511 36.8809L3.46593 36.8842L3.45681 36.8876L3.80793 37.8239ZM5.04993 3.85794L4.10694 4.19076V4.19076L5.04993 3.85794ZM3.80793 2.61594L3.45681 3.55227L3.46593 3.55569L3.47511 3.55893L3.80793 2.61594ZM0.999934 2.18394H-6.62804e-05V3.12992L0.944464 3.1824L0.999934 2.18394ZM0.999934 1.10394L1.07118 0.106479L-6.62804e-05 0.0299616V1.10394H0.999934ZM14.7699 1.10394H15.7699V0.0380735L14.7062 0.105968L14.7699 1.10394ZM14.7699 2.18394L14.8254 3.1824L15.7699 3.12992V2.18394H14.7699ZM11.9079 2.61594L11.5751 1.67295L11.5659 1.67619L11.5568 1.67961L11.9079 2.61594ZM10.7199 3.85794L11.6629 4.19076V4.19076L10.7199 3.85794ZM10.3959 18.9239H9.39593V19.9659L10.437 19.9231L10.3959 18.9239ZM16.5519 15.8999L15.766 15.2815L15.761 15.2881L16.5519 15.8999ZM21.7359 9.31194L20.9586 8.68268L20.9501 8.69354L21.7359 9.31194ZM21.1419 2.18394H20.1419V3.16794L21.1258 3.18381L21.1419 2.18394ZM21.1419 1.10394L21.1945 0.105319L20.1419 0.049922V1.10394H21.1419ZM31.9419 1.10394H32.9419V-0.00104904L31.8424 0.1089L31.9419 1.10394ZM31.9419 2.18394L32.0917 3.17265L32.9419 3.04383V2.18394H31.9419ZM28.5939 3.37194L29.077 4.24751L29.0884 4.24122L29.0997 4.23463L28.5939 3.37194ZM25.5699 6.12594L26.3585 6.74093L26.3617 6.73674L25.5699 6.12594ZM16.7679 17.4119L15.9794 16.797L15.5204 17.3855L15.954 17.9929L16.7679 17.4119ZM29.2959 34.9619L28.469 35.5242C29.1305 36.497 29.8694 37.3036 30.6939 37.9219L31.2939 37.1219L31.8939 36.3219C31.2784 35.8603 30.6854 35.2269 30.1229 34.3996L29.2959 34.9619ZM31.2939 37.1219L30.7392 37.954C31.6143 38.5374 32.6489 38.9564 33.8207 39.2298L34.0479 38.2559L34.2752 37.2821C33.287 37.0515 32.4856 36.7145 31.8486 36.2899L31.2939 37.1219ZM34.0479 38.2559H33.0479V39.3359H34.0479H35.0479V38.2559H34.0479ZM34.0479 39.3359L34.1103 38.3379C32.3541 38.2281 30.1716 38.1739 27.5679 38.1739V39.1739V40.1739C30.1482 40.1739 32.2858 40.2278 33.9856 40.334L34.0479 39.3359ZM27.5679 39.1739V38.1739C25.6055 38.1739 23.7311 38.2284 21.9448 38.3378L22.0059 39.3359L22.067 40.3341C23.8088 40.2274 25.6423 40.1739 27.5679 40.1739V39.1739ZM22.0059 39.3359H23.0059V38.2559H22.0059H21.0059V39.3359H22.0059ZM22.0059 38.2559L22.0476 39.2551C22.9385 39.2179 23.7302 39.1058 24.3097 38.8423L23.8959 37.9319L23.4821 37.0216C23.2697 37.1181 22.8014 37.2219 21.9643 37.2568L22.0059 38.2559ZM23.8959 37.9319L24.3097 38.8423C24.6184 38.702 24.9216 38.4944 25.1478 38.1858C25.3823 37.8661 25.4899 37.4977 25.4899 37.1219H24.4899H23.4899C23.4899 37.1194 23.4905 37.1019 23.4988 37.0752C23.5074 37.0479 23.5206 37.0227 23.535 37.0031C23.5633 36.9645 23.5695 36.9818 23.4821 37.0216L23.8959 37.9319ZM24.4899 37.1219H25.4899C25.4899 36.4508 25.1669 35.8092 24.7637 35.2447L23.9499 35.8259L23.1362 36.4072C23.453 36.8507 23.4899 37.0731 23.4899 37.1219H24.4899ZM23.9499 35.8259L24.7831 35.273L16.8991 23.393L16.0659 23.9459L15.2327 24.4989L23.1167 36.3789L23.9499 35.8259ZM16.0659 23.9459L16.9009 23.3956C15.851 21.8026 14.8731 20.6198 13.9649 20.0295L13.4199 20.8679L12.8749 21.7064C13.4068 22.0521 14.1929 22.9213 15.231 24.4963L16.0659 23.9459ZM13.4199 20.8679L13.9934 20.0487C13.0646 19.3985 11.8503 19.0832 10.4514 19.0055L10.3959 20.0039L10.3405 21.0024C11.5336 21.0687 12.3353 21.3294 12.8465 21.6872L13.4199 20.8679ZM10.3959 20.0039H9.39593V33.6119H10.3959H11.3959V20.0039H10.3959ZM10.3959 33.6119H9.39593C9.39593 34.9962 9.50066 36.132 9.77694 36.9148L10.7199 36.5819L11.6629 36.2491C11.5072 35.8079 11.3959 34.9637 11.3959 33.6119H10.3959ZM10.7199 36.5819L9.77694 36.9148C10.0851 37.788 10.6871 38.4341 11.5568 38.7603L11.9079 37.8239L12.2591 36.8876C11.9768 36.7818 11.7867 36.5999 11.6629 36.2491L10.7199 36.5819ZM11.9079 37.8239L11.5751 38.7669C12.3268 39.0322 13.3985 39.1813 14.7145 39.2544L14.7699 38.2559L14.8254 37.2575C13.5494 37.1866 12.7131 37.0476 12.2408 36.8809L11.9079 37.8239ZM14.7699 38.2559H13.7699V39.3359H14.7699H15.7699V38.2559H14.7699ZM14.7699 39.3359L14.835 38.3381C13.1471 38.228 10.8361 38.1739 7.91193 38.1739V39.1739V40.1739C10.8198 40.1739 13.0808 40.2279 14.7049 40.3338L14.7699 39.3359ZM7.91193 39.1739V38.1739C4.81126 38.1739 2.47787 38.2278 0.928687 38.3385L0.999934 39.3359L1.07118 40.3334C2.54599 40.2281 4.82061 40.1739 7.91193 40.1739V39.1739ZM0.999934 39.3359H1.99993V38.2559H0.999934H-6.62804e-05V39.3359H0.999934ZM0.999934 38.2559L1.0554 39.2544C2.36611 39.1816 3.43171 39.033 4.15906 38.7603L3.80793 37.8239L3.45681 36.8876C3.03216 37.0469 2.22575 37.1863 0.944464 37.2575L0.999934 38.2559ZM3.80793 37.8239L4.14075 38.7669C5.03795 38.4503 5.67627 37.812 5.99292 36.9148L5.04993 36.5819L4.10694 36.2491C3.9916 36.5759 3.80192 36.7656 3.47511 36.8809L3.80793 37.8239ZM5.04993 36.5819L5.99292 36.9148C6.26921 36.132 6.37393 34.9962 6.37393 33.6119H5.37393H4.37393C4.37393 34.9637 4.26266 35.8079 4.10694 36.2491L5.04993 36.5819ZM5.37393 33.6119H6.37393V6.82793H5.37393H4.37393V33.6119H5.37393ZM5.37393 6.82793H6.37393C6.37393 5.44369 6.26921 4.30792 5.99292 3.52512L5.04993 3.85794L4.10694 4.19076C4.26266 4.63195 4.37393 5.47618 4.37393 6.82793H5.37393ZM5.04993 3.85794L5.99292 3.52512C5.67627 2.62792 5.03795 1.9896 4.14075 1.67295L3.80793 2.61594L3.47511 3.55893C3.80192 3.67427 3.9916 3.86395 4.10694 4.19076L5.04993 3.85794ZM3.80793 2.61594L4.15906 1.67961C3.43171 1.40685 2.36611 1.25829 1.0554 1.18548L0.999934 2.18394L0.944464 3.1824C2.22575 3.25358 3.03216 3.39302 3.45681 3.55227L3.80793 2.61594ZM0.999934 2.18394H1.99993V1.10394H0.999934H-6.62804e-05V2.18394H0.999934ZM0.999934 1.10394L0.928688 2.1014C2.47788 2.21205 4.81126 2.26594 7.91193 2.26594V1.26593V0.265935C4.82061 0.265935 2.54599 0.211821 1.07118 0.106479L0.999934 1.10394ZM7.91193 1.26593V2.26594C10.8007 2.26594 13.1109 2.21187 14.8336 2.10191L14.7699 1.10394L14.7062 0.105968C13.045 0.212003 10.7831 0.265935 7.91193 0.265935V1.26593ZM14.7699 1.10394H13.7699V2.18394H14.7699H15.7699V1.10394H14.7699ZM14.7699 2.18394L14.7145 1.18548C13.3985 1.25859 12.3268 1.40764 11.5751 1.67295L11.9079 2.61594L12.2408 3.55893C12.7131 3.39223 13.5494 3.25328 14.8254 3.1824L14.7699 2.18394ZM11.9079 2.61594L11.5568 1.67961C10.6871 2.00577 10.0851 2.6519 9.77694 3.52512L10.7199 3.85794L11.6629 4.19076C11.7867 3.83998 11.9768 3.65811 12.2591 3.55227L11.9079 2.61594ZM10.7199 3.85794L9.77695 3.52512C9.50066 4.30792 9.39593 5.44369 9.39593 6.82793H10.3959H11.3959C11.3959 5.47618 11.5072 4.63195 11.6629 4.19076L10.7199 3.85794ZM10.3959 6.82793H9.39593V18.9239H10.3959H11.3959V6.82793H10.3959ZM10.3959 18.9239L10.437 19.9231C13.3297 19.8042 15.6686 18.6761 17.3429 16.5118L16.5519 15.8999L15.761 15.2881C14.4833 16.9397 12.7182 17.8277 10.3549 17.9248L10.3959 18.9239ZM16.5519 15.8999L17.3378 16.5183L22.5218 9.93032L21.7359 9.31194L20.9501 8.69354L15.7661 15.2815L16.5519 15.8999ZM21.7359 9.31194L22.5132 9.94113C23.4539 8.77904 24.1847 7.72497 24.6846 6.78409C25.1763 5.85839 25.4899 4.95886 25.4899 4.12794H24.4899H23.4899C23.4899 4.48502 23.3445 5.04348 22.9183 5.84578C22.5002 6.6329 21.8539 7.57683 20.9587 8.68274L21.7359 9.31194ZM24.4899 4.12794H25.4899C25.4899 3.13103 25.0121 2.32975 24.1551 1.83215C23.3775 1.38066 22.3364 1.20307 21.1581 1.18407L21.1419 2.18394L21.1258 3.18381C22.1795 3.2008 22.8124 3.36522 23.1508 3.56173C23.4098 3.71212 23.4899 3.86485 23.4899 4.12794H24.4899ZM21.1419 2.18394H22.1419V1.10394H21.1419H20.1419V2.18394H21.1419ZM21.1419 1.10394L21.0894 2.10255C23.1592 2.21149 25.2467 2.26594 27.3519 2.26594V1.26593V0.265935C25.2812 0.265935 23.2287 0.212382 21.1945 0.105319L21.1419 1.10394ZM27.3519 1.26593V2.26594C29.3429 2.26594 30.9119 2.21193 32.0414 2.09897L31.9419 1.10394L31.8424 0.1089C30.812 0.211941 29.321 0.265935 27.3519 0.265935V1.26593ZM31.9419 1.10394H30.9419V2.18394H31.9419H32.9419V1.10394H31.9419ZM31.9419 2.18394L31.7921 1.19522C30.4776 1.39438 29.241 1.83348 28.0882 2.50924L28.5939 3.37194L29.0997 4.23463C30.0349 3.68639 31.0302 3.33349 32.0917 3.17265L31.9419 2.18394ZM28.5939 3.37194L28.1109 2.49636C26.914 3.15671 25.8073 4.18104 24.7782 5.51513L25.5699 6.12594L26.3617 6.73674C27.2766 5.55083 28.1859 4.73916 29.077 4.24751L28.5939 3.37194ZM25.5699 6.12594L24.7814 5.51095L15.9794 16.797L16.7679 17.4119L17.5565 18.0269L26.3585 6.74092L25.5699 6.12594ZM16.7679 17.4119L15.954 17.9929L28.482 35.5429L29.2959 34.9619L30.1098 34.3809L17.5818 16.8309L16.7679 17.4119ZM33.0367 48.4619L33.0081 47.4623L32.0367 47.4901V48.4619H33.0367ZM38.5987 45.6539L37.7717 45.0916L37.7641 45.1031L38.5987 45.6539ZM40.1107 3.85794L39.1677 4.19076V4.19076L40.1107 3.85794ZM38.8687 2.61594L38.5176 3.55227L38.5267 3.55569L38.5359 3.55893L38.8687 2.61594ZM36.0607 2.18394H35.0607V3.12992L36.0052 3.1824L36.0607 2.18394ZM36.0607 1.10394L36.1319 0.106479L35.0607 0.0299616V1.10394H36.0607ZM49.8307 1.10394H50.8307V0.0380735L49.767 0.105968L49.8307 1.10394ZM49.8307 2.18394L49.8862 3.1824L50.8307 3.12992V2.18394H49.8307ZM46.9687 2.61594L46.6359 1.67295L46.6267 1.67619L46.6176 1.67961L46.9687 2.61594ZM45.7807 3.85794L46.7237 4.19076V4.19076L45.7807 3.85794ZM45.2947 34.7459L46.2936 34.792L46.2937 34.7913L45.2947 34.7459ZM44.5387 40.6859L45.5096 40.9253L45.5101 40.9234L44.5387 40.6859ZM40.5427 47.0579L39.9163 46.2784L39.9095 46.284L40.5427 47.0579ZM33.0367 49.4879H32.0367V50.4879H33.0367V49.4879ZM33.0367 48.4619L33.0653 49.4615C35.8479 49.382 38.0336 48.3255 39.4333 46.2048L38.5987 45.6539L37.7641 45.1031C36.7878 46.5823 35.2655 47.3979 33.0081 47.4623L33.0367 48.4619ZM38.5987 45.6539L39.4256 46.2162C40.828 44.1539 41.4347 40.8505 41.4347 36.5279H40.4347H39.4347C39.4347 40.7734 38.8174 43.554 37.7718 45.0916L38.5987 45.6539ZM40.4347 36.5279H41.4347V6.82793H40.4347H39.4347V36.5279H40.4347ZM40.4347 6.82793H41.4347C41.4347 5.44369 41.33 4.30792 41.0537 3.52512L40.1107 3.85794L39.1677 4.19076C39.3234 4.63195 39.4347 5.47618 39.4347 6.82793H40.4347ZM40.1107 3.85794L41.0537 3.52512C40.737 2.62792 40.0987 1.9896 39.2015 1.67295L38.8687 2.61594L38.5359 3.55893C38.8627 3.67427 39.0524 3.86395 39.1677 4.19076L40.1107 3.85794ZM38.8687 2.61594L39.2198 1.67961C38.4925 1.40685 37.4269 1.25829 36.1162 1.18548L36.0607 2.18394L36.0052 3.1824C37.2865 3.25358 38.0929 3.39302 38.5176 3.55227L38.8687 2.61594ZM36.0607 2.18394H37.0607V1.10394H36.0607H35.0607V2.18394H36.0607ZM36.0607 1.10394L35.9895 2.1014C37.5383 2.21203 39.8354 2.26594 42.8647 2.26594V1.26593V0.265935C39.846 0.265935 37.6071 0.211844 36.1319 0.106479L36.0607 1.10394ZM42.8647 1.26593V2.26594C45.8249 2.26594 48.1713 2.21189 49.8944 2.10191L49.8307 1.10394L49.767 0.105968C48.1061 0.21198 45.8085 0.265935 42.8647 0.265935V1.26593ZM49.8307 1.10394H48.8307V2.18394H49.8307H50.8307V1.10394H49.8307ZM49.8307 2.18394L49.7752 1.18548C48.4592 1.25859 47.3876 1.40764 46.6359 1.67295L46.9687 2.61594L47.3015 3.55893C47.7738 3.39223 48.6102 3.25328 49.8862 3.1824L49.8307 2.18394ZM46.9687 2.61594L46.6176 1.67961C45.7478 2.00577 45.1459 2.6519 44.8377 3.52512L45.7807 3.85794L46.7237 4.19076C46.8475 3.83998 47.0376 3.65811 47.3198 3.55227L46.9687 2.61594ZM45.7807 3.85794L44.8377 3.52512C44.5614 4.30792 44.4567 5.44369 44.4567 6.82793H45.4567H46.4567C46.4567 5.47618 46.568 4.63195 46.7237 4.19076L45.7807 3.85794ZM45.4567 6.82793H44.4567V26.5919H45.4567H46.4567V6.82793H45.4567ZM45.4567 26.5919H44.4567C44.4567 29.6408 44.4029 32.3432 44.2957 34.7005L45.2947 34.7459L46.2937 34.7913C46.4025 32.3967 46.4567 29.663 46.4567 26.5919H45.4567ZM45.2947 34.7459L44.2958 34.6998C44.1896 36.999 43.9432 38.9107 43.5673 40.4485L44.5387 40.6859L45.5101 40.9234C45.9262 39.2212 46.1838 37.1729 46.2936 34.792L45.2947 34.7459ZM44.5387 40.6859L43.5678 40.4465C42.9697 42.8722 41.753 44.8025 39.9163 46.2784L40.5427 47.0579L41.1691 47.8374C43.3644 46.0734 44.8117 43.7556 45.5096 40.9253L44.5387 40.6859ZM40.5427 47.0579L39.9095 46.284C38.1394 47.7322 35.8738 48.4879 33.0367 48.4879V49.4879V50.4879C36.2476 50.4879 38.986 49.6236 41.1759 47.8319L40.5427 47.0579ZM33.0367 49.4879H34.0367V48.4619H33.0367H32.0367V49.4879H33.0367ZM63.394 23.8919V22.8919H62.394V23.8919H63.394ZM65.338 37.8239L65.0506 38.7818V38.7818L65.338 37.8239ZM68.848 38.2559H69.848V37.2994L68.8924 37.2569L68.848 38.2559ZM68.848 39.3359L68.7904 40.3343L69.848 40.3953V39.3359H68.848ZM53.998 39.3359H52.998V40.4099L54.0692 40.3334L53.998 39.3359ZM53.998 38.2559L53.9425 37.2575L52.998 37.31V38.2559H53.998ZM56.806 37.8239L56.4732 36.8809L56.464 36.8842L56.4549 36.8876L56.806 37.8239ZM58.048 3.85794L57.105 4.19076V4.19076L58.048 3.85794ZM56.806 2.61594L56.4549 3.55227L56.464 3.55569L56.4732 3.55893L56.806 2.61594ZM53.998 2.18394H52.998V3.12992L53.9425 3.1824L53.998 2.18394ZM53.998 1.10394L54.0692 0.106479L52.998 0.0299616V1.10394H53.998ZM60.586 1.26593V2.26598L60.5952 2.26589L60.586 1.26593ZM66.418 1.21194L66.4272 2.21189L66.4489 2.21169L66.4705 2.21055L66.418 1.21194ZM78.406 4.07393L77.7492 4.82805L77.7562 4.83405L78.406 4.07393ZM80.404 17.5199L79.506 17.0798L79.5025 17.0872L80.404 17.5199ZM75.922 22.0559L75.4227 21.1895L75.4163 21.1932L75.922 22.0559ZM64.852 2.56194L64.4512 1.64578L64.4401 1.65063L64.4291 1.65575L64.852 2.56194ZM63.718 3.91194L64.6667 4.22816V4.22816L63.718 3.91194ZM63.394 22.8119H62.394V23.8119H63.394V22.8119ZM74.302 20.0039L73.4893 19.4212L73.4872 19.4242L74.302 20.0039ZM74.248 4.66794L73.477 5.30487L73.4852 5.31462L74.248 4.66794ZM63.394 23.8919H62.394V33.6119H63.394H64.394V23.8919H63.394ZM63.394 33.6119H62.394C62.394 35.0067 62.534 36.1851 62.9212 37.0077L63.826 36.5819L64.7308 36.1561C64.5419 35.7548 64.394 34.9532 64.394 33.6119H63.394ZM63.826 36.5819L62.9212 37.0077C63.3443 37.907 64.0924 38.4943 65.0506 38.7818L65.338 37.8239L65.6253 36.8661C65.1436 36.7216 64.8836 36.4809 64.7308 36.1561L63.826 36.5819ZM65.338 37.8239L65.0506 38.7818C65.8974 39.0358 67.1734 39.1825 68.8036 39.255L68.848 38.2559L68.8924 37.2569C67.2826 37.1854 66.2186 37.0441 65.6253 36.8661L65.338 37.8239ZM68.848 38.2559H67.848V39.3359H68.848H69.848V38.2559H68.848ZM68.848 39.3359L68.9056 38.3376C67.0048 38.2279 64.3363 38.1739 60.91 38.1739V39.1739V40.1739C64.3236 40.1739 66.9471 40.2279 68.7904 40.3343L68.848 39.3359ZM60.91 39.1739V38.1739C57.8093 38.1739 55.4759 38.2278 53.9267 38.3385L53.998 39.3359L54.0692 40.3334C55.544 40.2281 57.8187 40.1739 60.91 40.1739V39.1739ZM53.998 39.3359H54.998V38.2559H53.998H52.998V39.3359H53.998ZM53.998 38.2559L54.0535 39.2544C55.3642 39.1816 56.4298 39.033 57.1571 38.7603L56.806 37.8239L56.4549 36.8876C56.0302 37.0469 55.2238 37.1863 53.9425 37.2575L53.998 38.2559ZM56.806 37.8239L57.1388 38.7669C58.036 38.4503 58.6743 37.812 58.991 36.9148L58.048 36.5819L57.105 36.2491C56.9896 36.5759 56.8 36.7656 56.4732 36.8809L56.806 37.8239ZM58.048 36.5819L58.991 36.9148C59.2673 36.132 59.372 34.9962 59.372 33.6119H58.372H57.372C57.372 34.9637 57.2607 35.8079 57.105 36.2491L58.048 36.5819ZM58.372 33.6119H59.372V6.82793H58.372H57.372V33.6119H58.372ZM58.372 6.82793H59.372C59.372 5.44369 59.2673 4.30792 58.991 3.52512L58.048 3.85794L57.105 4.19076C57.2607 4.63195 57.372 5.47618 57.372 6.82793H58.372ZM58.048 3.85794L58.991 3.52512C58.6743 2.62792 58.036 1.9896 57.1388 1.67295L56.806 2.61594L56.4732 3.55893C56.8 3.67427 56.9896 3.86395 57.105 4.19076L58.048 3.85794ZM56.806 2.61594L57.1571 1.67961C56.4298 1.40685 55.3642 1.25829 54.0535 1.18548L53.998 2.18394L53.9425 3.1824C55.2238 3.25358 56.0302 3.39302 56.4549 3.55227L56.806 2.61594ZM53.998 2.18394H54.998V1.10394H53.998H52.998V2.18394H53.998ZM53.998 1.10394L53.9267 2.1014C55.4749 2.21198 57.6993 2.26594 60.586 2.26594V1.26593V0.265935C57.7127 0.265935 55.5451 0.211895 54.0692 0.106479L53.998 1.10394ZM60.586 1.26593L60.5952 2.26589L66.4272 2.21189L66.418 1.21194L66.4087 0.211979L60.5767 0.265978L60.586 1.26593ZM66.418 1.21194L66.4705 2.21055C67.1332 2.17568 67.8892 2.15794 68.74 2.15794V1.15794V0.157936C67.8627 0.157936 67.0707 0.176196 66.3654 0.213318L66.418 1.21194ZM68.74 1.15794V2.15794C72.8115 2.15794 75.7632 3.09826 77.7492 4.82802L78.406 4.07393L79.0628 3.31985C76.5848 1.16161 73.0924 0.157936 68.74 0.157936V1.15794ZM78.406 4.07393L77.7562 4.83405C79.7413 6.531 80.754 8.81427 80.754 11.7959H81.754H82.754C82.754 8.29761 81.5347 5.43287 79.0558 3.31381L78.406 4.07393ZM81.754 11.7959H80.754C80.754 13.6183 80.3412 15.3762 79.5061 17.0798L80.404 17.5199L81.3019 17.9601C82.2668 15.9917 82.754 13.9336 82.754 11.7959H81.754ZM80.404 17.5199L79.5025 17.0872C78.7439 18.6676 77.4122 20.043 75.4227 21.1895L75.922 22.0559L76.4213 22.9224C78.6798 21.6208 80.3361 19.9723 81.3055 17.9527L80.404 17.5199ZM75.922 22.0559L75.4163 21.1932C73.5349 22.2961 70.9403 22.8919 67.552 22.8919V23.8919V24.8919C71.1477 24.8919 74.133 24.2638 76.4277 22.9186L75.922 22.0559ZM67.552 23.8919V22.8919H63.394V23.8919V24.8919H67.552V23.8919ZM67.39 2.18394V1.18394C66.2266 1.18394 65.2162 1.31108 64.4512 1.64578L64.852 2.56194L65.2528 3.47809C65.6398 3.30879 66.3214 3.18394 67.39 3.18394V2.18394ZM64.852 2.56194L64.4291 1.65575C63.603 2.04124 63.0582 2.72892 62.7693 3.59571L63.718 3.91194L64.6667 4.22816C64.8097 3.79895 65.0209 3.58663 65.2749 3.46812L64.852 2.56194ZM63.718 3.91194L62.7693 3.59571C62.5012 4.40005 62.394 5.50275 62.394 6.82793H63.394H64.394C64.394 5.56112 64.5028 4.71983 64.6667 4.22816L63.718 3.91194ZM63.394 6.82793H62.394V22.8119H63.394H64.394V6.82793H63.394ZM63.394 22.8119V23.8119H67.012V22.8119V21.8119H63.394V22.8119ZM67.012 22.8119V23.8119C70.684 23.8119 73.5129 22.8378 75.1168 20.5837L74.302 20.0039L73.4872 19.4242C72.4271 20.9141 70.396 21.8119 67.012 21.8119V22.8119ZM74.302 20.0039L75.1147 20.5866C76.6405 18.4584 77.354 15.6951 77.354 12.3899H76.354H75.354C75.354 15.4207 74.6994 17.7334 73.4893 19.4212L74.302 20.0039ZM76.354 12.3899H77.354C77.354 8.79626 76.6371 5.93952 75.0107 4.02125L74.248 4.66794L73.4852 5.31462C74.6669 6.70835 75.354 8.99961 75.354 12.3899H76.354ZM74.248 4.66794L75.0189 4.03106C73.3827 2.0503 70.7425 1.18394 67.39 1.18394V2.18394V3.18394C70.4455 3.18394 72.3773 3.97358 73.477 5.30482L74.248 4.66794Z" fill="#206B92" mask="url(#path-1-outside-1_78_1156)"/>
<defs>
<linearGradient id="paint0_linear_78_1156" x1="41.2319" y1="-14.6641" x2="41.2319" y2="49.3359" gradientUnits="userSpaceOnUse">
<stop stop-color="white"/>
<stop offset="1" stop-color="#C6E6FA"/>
</linearGradient>
</defs>
</svg>
